<svg version="1" xmlns="http://www.w3.org/2000/svg" width="614.667" height="614.667" viewBox="0 0 461.000000 461.000000"><path d="M283.2 1.7c-.5 1-1.5 3.6-2.2 5.8-.7 2.2-2.8 7.4-4.7 11.5-13.3 29.4-21.2 40.4-27.4 38.5-2.7-.9-9.3-12.2-11.3-19.5-1-3.6-2.1-6.9-2.4-7.4-.3-.5-1.4 2.1-2.4 5.9-1.9 6.9-7.3 15.6-10.8 17.5-5 2.7-11 .4-17.1-6.5-3.8-4.3-9.9-12.9-9.9-14 0-.4-.8-1.9-1.8-3.3-1-1.5-3.4-6.4-5.2-11-1.9-4.5-3.7-7.9-4-7.5-.4.5-1.2 6.6-1.8 13.8-1.4 15.2-3.2 24.5-6.1 30.9-2 4.3-2.4 4.6-6.1 4.6-4.4 0-13.5-5.5-18.6-11.3-3.4-3.8-4.1-2.3-2 4 2.9 8.4 1.7 21.3-2 22.7-3 1.2-20.4-7.5-36.2-18.1-13.1-8.7-16.6-11.6-15.4-12.7.3-.4-.1-.4-1-.1-1 .4-2.1-.1-2.9-1.3-.8-1-2.9-2.7-4.8-3.7l-3.4-1.7 2 3.4c12.6 21 20.8 39.4 24.2 54.3 1.4 5.9-.1 10.1-4.6 13-3.3 2.2-12.9 3-20.6 1.7-4.4-.7-5.7-.6-5.7.4 0 .7.3 1.4.8 1.6 1.8.8 7.2 10.4 7.2 12.9 0 4.9-3.8 6.4-15.5 6.3-9.8-.1-33-3.1-45-6-10.1-2.3-11.2-1.3-2.8 2.6 5.7 2.6 23.6 13.7 31 19.2 6.7 4.9 15.8 13.6 17.3 16.6 1.7 3.4.4 6.9-3.3 8.9-2.3 1.3-6 1.8-13.6 2-5.7.2-10.6.5-10.9.8-.3.3.2.5 1.1.5 1 0 1.7.3 1.7.7 0 .5 2.5 2.1 5.5 3.7 10 5.2 14 12.1 9.6 16.5-3.6 3.6-20.3 10.3-33.6 13.5-5.2 1.3-12.7 3.2-25 6.5-4 1.1-4.2 1 20 6.3 13.9 3 27.5 8.2 31.9 12.3 3.8 3.5 4.2 6.7 1.6 12.1-2.9 5.8-14.7 17.9-22.1 22.5-.7.4-1.1 1-.8 1.3.8.9 23 2.8 25.3 2.2 1.1-.4 5.5-3.7 9.6-7.5l7.5-6.9-1.3-4.8c-.7-2.7-1.6-12.8-1.9-22.4-1-30.8 3.6-52.2 16.8-78.5 6.6-13.3 18.3-30 20.1-28.9.7.4.8.3.4-.4-1.2-2 14.5-18.1 25.4-26 3.6-2.6 6.7-5 6.8-5.4.2-.5.7-.8 1.2-.8.4 0 3.4-1.6 6.6-3.6 26.3-15.9 54.8-23.1 87.4-22 19.5.6 28.4 2.2 49 8.8.8.3 1.1.3.7 0-1-.5 5-3.3 10.8-5 2.2-.6 6.7-1.9 9.9-2.9l6-1.8 1.3-6c.8-3.3 1.8-6.4 2.3-6.9.6-.6 1-2.1 1-3.5.1-1.5 1.4-5.1 3-8.1 1.7-3 3-6.1 3-6.9 0-.8-4.8 3.6-10.7 9.8-8.6 9-11.9 11.8-16.2 13.6-4.3 1.8-6.1 2.1-8.3 1.3-1.6-.6-2.8-1.7-2.8-2.7 0-.9-.6-2.3-1.2-3-1-.9-1.3-7.7-1.2-27.7.1-14.5 0-26.4-.2-26.4s-.7.8-1.2 1.7z"/><path d="M334 71.4c-34.5 3.6-50.6 10.4-59 25.1-4.7 8.2-9 21.1-9.1 27.4-.2 6.9 1.6 17.3 3.8 22.6 3.3 7.7 11.3 17 19.3 22.4 21.8 14.6 53 15.8 80.8 3 7.7-3.5 9.2-4.7 13.2-10 6-8 10.5-11.5 12.6-9.8 2.6 2.2.7 7.3-6.1 16.6-1.4 1.9 1.3 6.4 5 8.3 1.7.8 5.8 1.5 9.5 1.5 5.5 0 7.6-.6 14.2-3.8 10.5-5.2 15-10 20.8-22.2 7.8-16.4 11.5-30.8 11.5-44.5 0-11.8-1.5-15.2-9.3-21-6.7-5-10.6-6.8-24.7-11.4-13.5-4.4-58.4-6.7-82.5-4.2zM82.8 109.7c.7.3 1.6.2 1.9-.1.4-.3-.2-.6-1.3-.5-1.1 0-1.4.3-.6.6z"/><path d="M241.5 135c-3.3 2.2-6.5 4.4-7.1 4.9-.5.4-2.1 1.4-3.4 2.1-1.3.7-8.2 5.6-15.4 10.9-7.2 5.4-17.4 12.6-22.6 16.1-14.2 9.5-23.5 16.6-39.9 30.5-5.8 4.9-12.2 10.3-14.1 11.9-1.9 1.5-5.7 4.9-8.5 7.4-11.6 10.7-16.5 15.1-23.5 21.2-4.1 3.6-12 10.8-17.5 16.1-5.5 5.3-12.2 11.6-15 13.9-4.2 3.5-41.3 40-48.9 48-4.5 4.7-9.4 13.3-15 26.3-6 14-.4 37.7 11.8 50.1 7.6 7.7 16.4 11.5 28.1 12.3 8.3.5 9.9.3 14.2-1.6 2.6-1.3 6.5-3.6 8.5-5.2s4.2-2.9 4.7-2.9c.6 0 1.1-.6 1.1-1.3 0-.6 1.3-2.7 2.9-4.6l2.8-3.4 2.1 2.1c2.8 2.8 10.6 5.4 16.8 5.5 9.2.2 22.4-8.5 26.8-17.7 3.9-8.4 5-14.8 3.6-21.8-.6-3.3-1-6.1-.8-6.2.2-.1 3.5-1 7.3-1.9 10.5-2.7 24.2-7.7 50-18.5 23.6-9.8 31.5-13.8 64-32.7 17.1-9.9 48.5-29.7 58.2-36.6 26.4-18.9 53.2-39.1 61.8-46.7 9-7.9 24.5-22.8 24.5-23.5 0-.4-.9-.7-2-.7-3.1 0-9.8-4.6-11.5-8-1.7-3.4-.9-3.5-14 3.1-4.9 2.5-15.1 7-22.5 10-12.8 5.2-13.8 5.7-22 13.5-9.5 9.1-23.2 21.1-30 26.4-2.5 1.9-7.6 6.4-11.4 10-3.8 3.6-7.4 7-8 7.5-1.8 1.7-20.6 15.8-25.6 19.2-9.8 6.7-31.3 19.1-46.5 26.8-8.8 4.5-20 10.2-25 12.8-18 9.1-50.3 20.9-71.5 26.1-10.4 2.5-35.9 6.6-41.2 6.6-4.7 0-3.1-1.9 3-3.5 7-1.8 21-6.1 27.8-8.6 2.8-.9 8.9-2.6 13.5-3.8 8.6-2 14.1-3.9 23.9-8.4 7.7-3.5 24.8-10.7 25.4-10.7.6 0 17.2-7.8 26.6-12.5 17.5-8.6 37.8-21.3 66.4-41.4 10.8-7.5 20.4-16.2 29.4-26.5 2.3-2.7 9.4-10.3 15.7-16.9 6.3-6.6 11.5-12.6 11.5-13.2 0-1.5-3.1-2.5-7.7-2.5-3.7 0-15.6-3.8-16.1-5.1-.2-.5-1.1-.9-1.9-.9-2.5 0-20.3-15.5-20.3-17.6 0-.3-1.3-2.3-2.8-4.3-6.4-8.2-10.3-17.4-12.2-28.9-.6-3.9-1.5-7.2-1.8-7.2-.4 0-3.4 1.8-6.7 4z"/><path d="M400.2 198.6c-3.5 3.5-6.8 6.4-7.3 6.4s-.9 7.9-.9 18.7c0 20.6-.8 27.9-4.5 42.6-3.4 13.4-8.5 26.3-15.2 38.2-6.4 11.3-19.1 28.4-21.2 28.5-.8 0-1.1.3-.7.7 1.1 1.1-16.6 17.6-24.7 22.9-15 10-20.6 13.1-31.7 17.6-10.9 4.5-18 6.8-20.5 6.8-1.2 0-2.5.4-3 .9-1.5 1.3-19.5 3.9-32 4.6-10.9.7-28.8-.9-41-3.7-13.8-3-36.4-12.5-51-21.3-2.1-1.3-4.3-2.2-4.7-1.9-.8.5-.5 10.9.7 25.4.3 4.7.2 11.3-.3 14.7-.5 3.5-.6 6.3-.3 6.3.4 0 3.3-2 6.6-4.5s6.4-4.5 6.9-4.5 1.7-.6 2.5-1.3c2.6-2.2 10.8-4.9 13.8-4.5 2.6.3 2.9.8 4.1 7.3.9 4.9 1.2 15.4 1 34.8-.2 18 .1 27.7.7 27.7s2.2-2.6 3.7-5.8c5.8-12.2 19.7-37.2 23.5-42.1 3.6-4.7 11.1-12.1 12.3-12.1 5.1 0 12.5 8.5 15.8 18.3 1 3.2 2.2 5.8 2.6 5.8.4 0 2.5-3.5 4.7-7.8 4.5-9 11.5-17.7 13.5-16.9.9.3 1.4-.2 1.4-1.4 0-1.7.7-2 3.9-2 3.3 0 4.4.6 6.9 3.6 1.6 1.9 3.5 4.7 4.3 6.2.8 1.5 2.5 4.7 3.9 7.2s4.6 9.4 7 15.3c2.4 6 4.7 11 5.1 11.2.3.3.9-6.2 1.2-14.3.6-16.3 2.7-27.7 5.4-29.8 2.1-1.6 10.3-1.9 10.3-.4 0 .5.5 1 1.2 1s3.8 2.5 6.9 5.6l5.7 5.6-.1-11.8c-.2-12 1.2-18.4 3.9-18.4 3.6 0 27.5 14.8 32.4 20 .3.3 1.7 1.5 3.2 2.6 3.6 2.8 12.3 10.3 17.8 15.5 2.4 2.3 4.6 3.6 4.8 3 .2-.6-1.8-4.8-4.4-9.4-2.6-4.5-7.8-14.2-11.6-21.5-9.9-19.3-13.4-29.5-12.2-35.9 1.2-6.4 11.3-8.8 26.3-6.1 3.6.6 7 1.5 7.5 2 .6.4 2.7.8 4.8.8h3.8l-3.2-4.8c-1.8-2.6-4.1-6.3-5-8.2-4.3-8.5-6.1-20.3-3.6-22.8 2.7-2.7 29.4-.4 51.3 4.3 16.6 3.6 21.7 4.6 22.1 4.3.2-.2-1.3-1.3-3.4-2.3-11.9-6.2-23.6-13.3-37.5-22.8-7.1-4.8-17.7-15.4-17.7-17.6 0-4.4 10.1-9.1 24.5-11.5 5-.8 9.7-1.5 10.5-1.4 3.9.3 8-.3 8-1.2 0-.5-1.5-1.7-3.2-2.6-8.8-4.4-25.8-17.5-25.8-19.7 0-1.7 5-6.9 8.5-9 7.8-4.6 27.2-11.9 35.3-13.2 6.2-1 5.1-2.3-2.5-3-15-1.3-33.7-5.3-37.1-8-.8-.5-2.7-2.3-4.4-3.9-2.8-2.7-3-3.3-2.6-8.2.3-3 .2-5.4-.1-5.3-.3 0-3.4 2.9-6.9 6.5z"/></svg>